<?xml version="1.0" encoding="UTF-8"?>
<svg xmlns="http://www.w3.org/2000/svg" width="1200" height="360" viewBox="0 0 1200 360" role="img" aria-labelledby="title desc">
<title id="title">Suyash Madke — Data Science, Machine Learning and Python</title>
<desc id="desc">Terminal-inspired GitHub profile banner for Suyash Madke.</desc>
<defs><linearGradient id="bg" x1="0" y1="0" x2="1" y2="1"><stop offset="0%" stop-color="#1A1512"/><stop offset="100%" stop-color="#211A16"/></linearGradient><linearGradient id="glow" x1="0" y1="0" x2="1" y2="1"><stop offset="0%" stop-color="#C1553B" stop-opacity=".24"/><stop offset="100%" stop-color="#D4A24C" stop-opacity=".05"/></linearGradient><filter id="soft" x="-30%" y="-30%" width="160%" height="160%"><feGaussianBlur stdDeviation="18"/></filter></defs>
<rect width="1200" height="360" rx="28" fill="url(#bg)"/><rect x="1.5" y="1.5" width="1197" height="357" rx="26.5" fill="none" stroke="#5A3A2E" stroke-width="3"/><circle cx="1060" cy="95" r="150" fill="url(#glow)" filter="url(#soft)"/>
<rect x="46" y="38" width="1108" height="284" rx="18" fill="#241D18" stroke="#5A3A2E" stroke-width="2"/><rect x="46" y="38" width="1108" height="44" rx="18" fill="#211A16"/><path d="M46 82H1154" stroke="#3D2C24" stroke-width="2"/>
<circle cx="72" cy="60" r="6" fill="#C1553B"/><circle cx="92" cy="60" r="6" fill="#D4A24C"/><circle cx="112" cy="60" r="6" fill="#B9AA9D"/><text x="600" y="66" text-anchor="middle" font-family="JetBrains Mono, Fira Code, monospace" font-size="14" fill="#B9AA9D">~/suyash — zsh</text>
<text x="82" y="126" font-family="JetBrains Mono, Fira Code, monospace" font-size="16" fill="#D4A24C">$ whoami</text><text x="82" y="175" font-family="Inter, Arial, sans-serif" font-size="40" font-weight="700" fill="#F2E9DE">Suyash Madke</text><text x="84" y="208" font-family="JetBrains Mono, Fira Code, monospace" font-size="19" fill="#C1553B">Data Science • Machine Learning • Python</text><text x="84" y="246" font-family="Inter, Arial, sans-serif" font-size="16" fill="#B9AA9D">Building applied ML systems &amp; Python applications.</text><text x="84" y="274" font-family="JetBrains Mono, Fira Code, monospace" font-size="14" fill="#D4A24C">federated-learning  ·  applied-ai  ·  data-analytics</text>
<g stroke="#C1553B" stroke-width="2" opacity=".85"><path d="M820 145L900 115L980 150L1060 115"/><path d="M820 145L900 190L980 150L1060 190"/><path d="M820 235L900 190L980 230L1060 190"/><path d="M900 115L900 190"/><path d="M980 150L980 230"/></g><g fill="#D4A24C" stroke="#241D18" stroke-width="5"><circle cx="820" cy="145" r="9"/><circle cx="900" cy="115" r="9"/><circle cx="900" cy="190" r="9"/><circle cx="820" cy="235" r="9"/><circle cx="980" cy="150" r="9"/><circle cx="980" cy="230" r="9"/><circle cx="1060" cy="115" r="9"/><circle cx="1060" cy="190" r="9"/></g><text x="1060" y="265" text-anchor="end" font-family="JetBrains Mono, Fira Code, monospace" font-size="13" fill="#B9AA9D">build / test / learn</text></svg>