<svg width="1200" height="360" viewBox="0 0 1200 360" xmlns="http://www.w3.org/2000/svg" role="img" aria-labelledby="title desc" preserveAspectRatio="xMidYMid meet">
<title id="title">Suyash Madke — Neon Data Science Profile</title>
<desc id="desc">Neon cyber data-lab banner for Suyash Madke.</desc>
<defs>
  <linearGradient id="bg" x1="0" y1="0" x2="1" y2="1"><stop stop-color="#050814"/><stop offset="1" stop-color="#12091F"/></linearGradient>
  <linearGradient id="accent" x1="0" y1="0" x2="1" y2="0"><stop stop-color="#00E5FF"/><stop offset=".52" stop-color="#6C63FF"/><stop offset="1" stop-color="#FF2BD6"/></linearGradient>
  <pattern id="grid" width="32" height="32" patternUnits="userSpaceOnUse"><path d="M32 0H0V32" fill="none" stroke="#6C63FF" stroke-opacity=".10"/></pattern>
  <filter id="glow" x="-40%" y="-40%" width="180%" height="180%"><feGaussianBlur stdDeviation="5" result="b"/><feMerge><feMergeNode in="b"/><feMergeNode in="SourceGraphic"/></feMerge></filter>
</defs>
<rect width="1200" height="360" rx="20" fill="url(#bg)"/><rect width="1200" height="360" rx="20" fill="url(#grid)"/>
<path d="M0 305 C170 255 240 335 400 286 S680 235 820 278 S1050 330 1200 245" fill="none" stroke="url(#accent)" stroke-width="2" opacity=".35"/>
<path d="M0 306 C170 256 240 336 400 287 S680 236 820 279 S1050 331 1200 246" fill="none" stroke="#00E5FF" stroke-width="1" opacity=".25" filter="url(#glow)"/>
<rect x="1" y="1" width="1198" height="358" rx="19" fill="none" stroke="#00E5FF" stroke-opacity=".28"/><rect x="0" width="5" height="360" fill="#00E5FF" filter="url(#glow)"/>
<g font-family="JetBrains Mono, Fira Code, monospace">
  <text x="64" y="78" font-size="18" fill="#8E86FF">~/suyash</text>
  <text x="64" y="145" font-size="58" font-weight="700" fill="#F8FBFF">Suyash Madke</text>
  <text x="64" y="188" font-size="24" fill="#00E5FF">Data Science · Python · Applied AI · Analytics</text>
  <text x="64" y="220" font-size="17" fill="#A9B0D0">B.Sc. Data Science — University of Mumbai · 2026</text>
  <g transform="translate(64 250)">
    <rect width="170" height="38" rx="19" fill="#050814" stroke="#00E5FF"/><text x="19" y="25" font-size="14" font-weight="700" fill="#00E5FF">FEDERATED ML</text>
    <rect x="184" width="150" height="38" rx="19" fill="#050814" stroke="#6C63FF"/><text x="205" y="25" font-size="14" font-weight="700" fill="#B9B5FF">ANALYTICS</text>
    <rect x="348" width="148" height="38" rx="19" fill="#050814" stroke="#FF2BD6"/><text x="370" y="25" font-size="14" font-weight="700" fill="#FF7BE8">PYTHON</text>
  </g>
  <text x="64" y="329" font-size="13" fill="#69739D">$ whoami · build · learn · ship</text>
</g>
</svg>