<svg width="1200" height="380" viewBox="0 0 1200 380" xmlns="http://www.w3.org/2000/svg" role="img" aria-labelledby="title desc"><title id="title">Suyash Madke — Data Science and Machine Learning</title><desc id="desc">Light neon cyber profile banner for Suyash Madke, focused on Data Science, Python, Applied AI, Analytics and Federated Learning.</desc><defs><linearGradient id="bg" x1="0" y1="0" x2="1" y2="1"><stop offset="0" stop-color="#F8FBFF"/><stop offset="0.55" stop-color="#F7F6FF"/><stop offset="1" stop-color="#F5ECFA"/></linearGradient><radialGradient id="cyanGlow" cx="86%" cy="22%" r="58%"><stop offset="0" stop-color="#00E5FF" stop-opacity="0.13"/><stop offset="1" stop-color="#00E5FF" stop-opacity="0"/></radialGradient><radialGradient id="magentaGlow" cx="16%" cy="100%" r="55%"><stop offset="0" stop-color="#FF2BD6" stop-opacity="0.10"/><stop offset="1" stop-color="#FF2BD6" stop-opacity="0"/></radialGradient><pattern id="grid" width="32" height="32" patternUnits="userSpaceOnUse"><path d="M32 0H0V32" fill="none" stroke="#6C63FF" stroke-opacity="0.10" stroke-width="1"/></pattern><filter id="glow" x="-50%" y="-50%" width="200%" height="200%"><feGaussianBlur stdDeviation="4" result="blur"/><feMerge><feMergeNode in="blur"/><feMergeNode in="SourceGraphic"/></feMerge></filter></defs><rect width="1200" height="380" rx="18" fill="url(#bg)"/><rect width="1200" height="380" rx="18" fill="url(#grid)"/><rect width="1200" height="380" rx="18" fill="url(#cyanGlow)"/><rect width="1200" height="380" rx="18" fill="url(#magentaGlow)"/><rect x="1" y="1" width="1198" height="378" rx="17" fill="none" stroke="#6C63FF" stroke-opacity="0.24"/><rect x="0" y="0" width="4" height="380" fill="#00E5FF" filter="url(#glow)"/><rect x="0" y="0" width="2" height="380" fill="#FF2BD6" opacity="0.8"/><g font-family="JetBrains Mono, Fira Code, monospace"><text x="64" y="90" font-size="18" fill="#5A50E8">~/suyash — zsh</text><text x="64" y="150" font-size="46" font-weight="700" fill="#12091F">Suyash Madke</text><text x="64" y="190" font-size="20" fill="#0095B5">Data Science &amp; ML · Python · Applied AI · Analytics</text><text x="64" y="224" font-size="16" fill="#536184">B.Sc. Data Science — University of Mumbai</text><g transform="translate(64 252)"><rect width="165" height="36" rx="18" fill="#F8FBFF" stroke="#00A8C4" stroke-width="1"/><text x="18" y="23" font-size="13" font-weight="700" fill="#0088A4">Federated Learning</text><rect x="176" width="152" height="36" rx="18" fill="#F8FBFF" stroke="#6C63FF" stroke-width="1"/><text x="194" y="23" font-size="13" font-weight="700" fill="#564DE1">Data Analytics</text><rect x="339" width="177" height="36" rx="18" fill="#F8FBFF" stroke="#FF2BD6" stroke-width="1"/><text x="357" y="23" font-size="13" font-weight="700" fill="#C6009C">Python Development</text></g><text x="64" y="326" font-size="14" fill="#657092">github.com/Samuel-025</text></g></svg>